<?xml version="1.0" encoding="utf-8"?>
<!-- Generator: Adobe Illustrator 15.0.0, SVG Export Plug-In . SVG Version: 6.00 Build 0)  -->
<!DOCTYPE svg PUBLIC "-//W3C//DTD SVG 1.1//EN" "http://www.w3.org/Graphics/SVG/1.1/DTD/svg11.dtd">
<svg version="1.1" id="Capa_1" xmlns="http://www.w3.org/2000/svg" xmlns:xlink="http://www.w3.org/1999/xlink" x="0px" y="0px"
	 width="1095.109px" height="243.029px" viewBox="0 0 1095.109 243.029" enable-background="new 0 0 1095.109 243.029"
	 xml:space="preserve">
<g>
	<g>
		<path fill="#690000" d="M259.818,160.401c-1.666-0.872-4.08-1.314-7.167-1.314h-13.807v1.553l1.18,0.732v21.672l-1.18,0.729v1.557
			h13.807c2.885,0,5.249-0.425,7.024-1.266c1.801-0.842,3.311-2.253,4.479-4.172c1.286-2.162,1.942-4.753,1.942-7.701
			c0-2.473-0.482-4.747-1.438-6.711C263.558,163.207,261.928,161.496,259.818,160.401z M243.94,162.515h8.604
			c1.923,0,3.466,0.195,4.589,0.621c1.086,0.413,2.025,1.11,2.784,2.091c1.416,1.824,2.132,4.172,2.132,6.965
			c0,1.557-0.227,3.006-0.674,4.296c-0.671,1.906-1.734,3.345-3.156,4.265c-1.201,0.771-3.111,1.157-5.675,1.157h-8.604V162.515z"/>
		<polygon fill="#690000" points="533.669,160.64 534.853,161.364 534.853,178.81 519.785,161.177 520.673,160.633 520.673,159.083 
			512.571,159.083 512.4,159.087 512.4,160.633 513.584,161.364 513.584,183.044 512.4,183.773 512.4,185.331 518.429,185.331 
			518.429,183.773 517.243,183.053 517.243,164.167 533.716,183.255 532.854,183.773 532.854,185.331 539.698,185.331 
			539.698,183.773 538.511,183.053 538.511,161.372 539.698,160.64 539.698,159.087 533.669,159.087 		"/>
		<polygon fill="#690000" points="651.429,181.911 636.793,181.911 653.552,160.344 653.585,160.283 653.585,159.087 
			632.733,159.087 632.004,157.903 630.453,157.903 630.453,163.694 632.004,163.694 632.741,162.515 647.115,162.515 
			630.283,184.06 630.253,184.101 630.253,185.331 651.436,185.331 652.169,186.5 653.715,186.5 653.715,180.715 652.169,180.715 		
		"/>
		<polygon fill="#690000" points="321.427,159.087 300.438,159.083 300.268,159.087 300.268,160.633 301.452,161.366 
			301.452,183.044 300.268,183.773 300.268,185.331 321.427,185.331 322.162,186.5 323.719,186.5 323.719,180.715 322.162,180.715 
			321.427,181.911 305.364,181.911 305.364,173.556 315.708,173.556 316.438,174.74 317.989,174.74 317.989,168.965 
			316.438,168.965 315.708,170.131 305.364,170.131 305.364,162.515 321.427,162.515 322.162,163.694 323.719,163.694 
			323.719,157.903 322.162,157.903 		"/>
		<polygon fill="#690000" points="476.067,159.087 455.069,159.083 454.896,159.087 454.896,160.633 456.083,161.366 
			456.083,183.044 454.896,183.773 454.896,185.331 476.067,185.331 476.8,186.5 478.348,186.5 478.348,180.715 476.8,180.715 
			476.067,181.911 460.001,181.911 460.001,173.556 470.34,173.556 471.072,174.74 472.62,174.74 472.62,168.965 471.072,168.965 
			470.34,170.131 460.001,170.131 460.001,162.515 476.067,162.515 476.8,163.694 478.348,163.694 478.348,157.903 476.8,157.903 		
		"/>
		<polygon fill="#690000" points="595.659,159.087 574.664,159.083 574.496,159.087 574.496,160.633 575.682,161.366 
			575.682,183.044 574.496,183.773 574.496,185.331 595.659,185.331 596.389,186.5 597.943,186.5 597.943,180.715 596.389,180.715 
			595.659,181.911 579.595,181.911 579.595,173.556 589.937,173.556 590.667,174.74 592.217,174.74 592.217,168.965 
			590.667,168.965 589.937,170.131 579.595,170.131 579.595,162.515 595.659,162.515 596.389,163.694 597.943,163.694 
			597.943,157.903 596.389,157.903 		"/>
		<polygon fill="#690000" points="768.063,159.087 747.068,159.083 746.896,159.087 746.896,160.633 748.081,161.366 
			748.081,183.044 746.896,183.773 746.896,185.331 768.063,185.331 768.799,186.5 770.347,186.5 770.347,180.715 768.799,180.715 
			768.063,181.911 751.997,181.911 751.997,173.556 762.338,173.556 763.069,174.74 764.618,174.74 764.618,168.965 
			763.069,168.965 762.338,170.131 751.997,170.131 751.997,162.515 768.063,162.515 768.799,163.694 770.347,163.694 
			770.347,157.903 768.799,157.903 		"/>
		<polygon fill="#690000" points="825.518,181.911 809.506,181.911 809.506,161.377 810.709,160.633 810.709,159.083 
			804.575,159.083 804.409,159.087 804.409,160.633 805.595,161.366 805.595,183.051 804.409,183.773 804.409,185.331 
			825.518,185.331 826.248,186.5 827.798,186.5 827.798,180.715 826.248,180.715 		"/>
		<path fill="#690000" d="M706.302,160.633l1.189,0.744v14.356c0,1.593-0.077,2.735-0.24,3.345
			c-0.145,0.582-0.454,1.078-0.914,1.502c-1.202,1.073-3.531,1.629-6.913,1.64c-3.389-0.011-5.716-0.567-6.916-1.64
			c-0.462-0.425-0.775-0.921-0.921-1.502c-0.156-0.619-0.244-1.756-0.244-3.345v-14.361l1.192-0.739v-1.55h-6.298v1.55l1.191,0.744
			v14.929c0,0.213,0.005,0.421,0.009,0.62l0.022,0.573c0.006,0.129,0.012,0.256,0.023,0.382l0.007,0.143
			c0.017,0.152,0.027,0.297,0.049,0.476c0.098,0.835,0.239,1.521,0.441,2.064c0.009,0.025,0.02,0.049,0.031,0.081l0.021,0.042
			c0.23,0.613,0.557,1.168,0.968,1.69l0.04,0.049c0.132,0.169,0.262,0.323,0.42,0.472l0.032,0.042
			c0.128,0.126,0.279,0.261,0.448,0.417l0.12,0.085c0.11,0.087,0.22,0.181,0.339,0.268c0.457,0.333,0.942,0.601,1.459,0.831
			c1.437,0.641,3.345,1.042,5.663,1.168c0.143,0.007,0.279,0.018,0.422,0.025c0.157,0.007,0.313,0.025,0.474,0.029
			c0.302,0.004,0.611,0.015,0.961,0.015h0.049h0.065c0.313,0,0.626-0.011,0.933-0.015c0.155-0.004,0.313-0.021,0.466-0.029
			c0.144-0.007,0.286-0.018,0.424-0.025c2.322-0.126,4.23-0.527,5.665-1.168c0.511-0.229,1.006-0.498,1.46-0.831
			c0.115-0.087,0.232-0.181,0.343-0.27l0.117-0.083c0.173-0.156,0.315-0.293,0.456-0.42l0.031-0.042
			c0.148-0.145,0.283-0.322,0.418-0.473l0.031-0.044c0.412-0.52,0.739-1.078,0.973-1.69l0.018-0.038
			c0.012-0.036,0.023-0.06,0.035-0.084c0.203-0.546,0.346-1.236,0.439-2.078c0.019-0.15,0.033-0.309,0.05-0.515l0.005-0.046
			c0.01-0.15,0.013-0.292,0.023-0.434l0.018-0.309c0-0.094,0.003-0.182,0.003-0.278c0.005-0.069,0.005-0.152,0.005-0.234
			l0.005-15.295l1.19-0.739v-1.55h-6.299V160.633z"/>
		<path fill="#690000" d="M886.392,182.741l-10.023-21.581l0.854-0.527v-1.55h-6.898v1.55l0.854,0.527l-10.021,21.581l-1.69,1.032
			v1.557h6.66v-1.557l-1.013-0.619l2.246-4.907h12.83l2.24,4.907l-1.008,0.619v1.379l0.022,0.178h6.642v-1.557L886.392,182.741z
			 M873.772,164.112l4.884,10.71h-9.763L873.772,164.112z"/>
		<polygon fill="#690000" points="415.912,160.64 417.118,161.377 408.915,180.258 400.708,161.377 401.919,160.64 401.919,159.087 
			394.868,159.087 394.868,160.64 396.537,161.664 405.741,182.683 404.764,183.903 404.764,185.331 413.066,185.331 
			413.066,183.903 412.089,182.683 421.291,161.664 422.958,160.64 422.958,159.087 415.912,159.087 		"/>
	</g>
	<g>
		<path fill="#690000" d="M139.786,66.705c-1.909-0.993-4.156-1.79-6.676-2.369c-2.516-0.576-5.276-0.866-8.206-0.866H90.129v0.002
			v3.99v0.046h3.105c0.201,0,0.395,0.026,0.585,0.055c0.132,0.021,0.259,0.046,0.385,0.074c1.722,0.414,3.006,1.879,3.006,3.64
			v65.034c0,1.541-0.987,2.868-2.391,3.45c-0.044,0.013-0.082,0.031-0.125,0.045c-0.105,0.04-0.215,0.068-0.322,0.098
			c-0.224,0.052-0.453,0.098-0.696,0.132c-0.125,0.013-0.251,0.034-0.376,0.037c-0.036,0.003-0.074,0.003-0.11,0.006h-2.839
			l-0.222,0.037v3.999h34.773h0.002c2.91,0,5.668-0.295,8.206-0.875c1.129-0.258,2.196-0.568,3.212-0.912
			c0.113-0.04,0.241-0.071,0.353-0.114c1.117-0.395,2.153-0.841,3.111-1.336c1.954-1.022,3.553-2.272,4.751-3.716
			c1.278-1.547,1.93-3.205,1.93-4.928V75.349c0-1.8-0.653-3.483-1.945-5C143.324,68.951,141.732,67.726,139.786,66.705z
			 M112.426,139.928c-0.01-0.007-0.016-0.009-0.025-0.012c-0.026-0.019-0.033-0.031-0.049-0.043
			c-0.034-0.037-0.049-0.063-0.049-0.089V67.744c0.02-0.021,0.046-0.045,0.095-0.08c0.207-0.134,0.441-0.199,0.742-0.199h11.763
			c1.951,0,3.609,0.34,4.935,1.022c1.043,0.543,1.549,1.116,1.549,1.751v67.107c0,0.632-0.506,1.204-1.549,1.748
			c-1.309,0.678-2.967,1.022-4.935,1.022H113.14C112.848,140.115,112.621,140.052,112.426,139.928z"/>
		<path fill="#690000" d="M399.271,66.705c-1.909-0.998-4.156-1.792-6.687-2.369c-2.512-0.576-5.266-0.866-8.2-0.866h-3.061
			c-2.929,0-5.687,0.29-8.2,0.866c-2.515,0.573-4.781,1.369-6.747,2.361c-2.023,1.025-3.625,2.266-4.772,3.679
			c-1.223,1.512-1.839,3.185-1.839,4.973v56.883c0,1.711,0.613,3.363,1.825,4.901c1.161,1.469,2.771,2.73,4.784,3.751
			c1.958,0.988,4.228,1.781,6.749,2.355c2.531,0.581,5.286,0.875,8.2,0.875h3.061c2.914,0,5.674-0.295,8.203-0.875
			c2.545-0.581,4.791-1.378,6.684-2.362c1.939-1.016,3.538-2.266,4.744-3.717c1.281-1.549,1.931-3.207,1.931-4.927V75.349
			c0-1.8-0.653-3.483-1.946-5C402.803,68.954,401.212,67.726,399.271,66.705z M374.847,70.238c0-0.64,0.505-1.213,1.537-1.753
			c1.331-0.679,2.938-1.023,4.776-1.023h3.224c1.954,0,3.616,0.34,4.937,1.02c1.037,0.549,1.541,1.124,1.541,1.757v67.107
			c0,0.635-0.504,1.207-1.541,1.748c-1.303,0.678-2.962,1.022-4.937,1.022h-3.224c-1.864,0-3.47-0.344-4.774-1.02
			c-1.539-0.816-1.539-1.495-1.539-1.75V70.238z"/>
		<path fill="#690000" d="M153.041,67.504h3.104c2.193,0,3.974,1.688,3.974,3.769v65.035c0,2.076-1.78,3.768-3.974,3.768h-3.104
			v4.035h29.262v-4.035h-3.106c-2.192,0-3.977-1.692-3.977-3.768V71.273c0-2.081,1.784-3.769,3.977-3.769h3.106V63.47h-29.262
			V67.504z"/>
		<path fill="#690000" d="M945.436,67.504h3.104c2.189,0,3.975,1.688,3.975,3.769v65.035c0,2.076-1.785,3.768-3.975,3.768h-3.104
			v4.035h29.259v-4.035h-3.105c-2.189,0-3.976-1.692-3.976-3.768V71.273c0-2.081,1.786-3.769,3.976-3.769h3.105V63.47h-29.259
			V67.504z"/>
		<path fill="#690000" d="M868.989,82.683h5.299v-3.389c0-6.498,5.573-11.79,12.422-11.79h5.689c2.19,0,3.978,1.688,3.978,3.769
			v65.035c0,2.076-1.787,3.768-3.978,3.768h-3.104v4.035h29.259v-4.035h-3.104c-2.191,0-3.974-1.692-3.974-3.768V71.273
			c0-2.081,1.782-3.769,3.974-3.769h5.691c6.85,0,12.419,5.292,12.419,11.79v3.389h5.298V63.47h-69.869V82.683z"/>
		<path fill="#690000" d="M323.925,67.504h3.106c2.192,0,3.975,1.688,3.975,3.769v65.035c0,2.076-1.782,3.768-3.975,3.768h-3.106
			v4.035h29.26v-4.035h-3.103c-2.19,0-3.976-1.692-3.976-3.768V71.273c0-2.081,1.785-3.769,3.976-3.769h3.103V63.47h-29.26V67.504z"
			/>
		<path fill="#690000" d="M243.345,136.422V75.349c0-1.804-0.653-3.487-1.943-5c-1.189-1.395-2.779-2.621-4.732-3.644
			c-1.908-0.993-4.159-1.79-6.683-2.369c-2.515-0.576-5.272-0.866-8.198-0.866h-4.287c-2.924,0-5.684,0.29-8.199,0.866
			c-2.523,0.579-4.772,1.376-6.684,2.369c-1.947,1.023-3.537,2.249-4.73,3.644c-1.289,1.517-1.943,3.2-1.943,5v61.083
			c-0.071,2.042-1.813,3.645-3.964,3.645h-3.104v4.035h29.262v-4.035h-3.104c-2.191,0-3.977-1.692-3.977-3.768V109.44h17.178v26.867
			c0,2.076-1.784,3.768-3.975,3.768h-3.106v4.035h29.26v-4.035h-3.104C245.148,140.076,243.409,138.466,243.345,136.422z
			 M217.501,67.462h4.287c1.943,0,3.604,0.344,4.931,1.02c1.021,0.538,1.517,1.111,1.517,1.757v35.222h-17.178V70.238
			c0-0.646,0.494-1.219,1.513-1.753C213.895,67.802,215.555,67.462,217.501,67.462z"/>
		<path fill="#690000" d="M776.671,136.422V75.349c0-1.804-0.651-3.487-1.942-5c-1.191-1.395-2.785-2.621-4.735-3.644
			c-1.909-0.993-4.154-1.79-6.68-2.369c-2.516-0.576-5.272-0.866-8.2-0.866h-4.287c-2.925,0-5.684,0.29-8.197,0.866
			c-2.523,0.579-4.772,1.376-6.683,2.369c-1.951,1.021-3.541,2.249-4.729,3.644c-1.289,1.517-1.948,3.196-1.948,5v61.083
			c-0.07,2.042-1.812,3.645-3.964,3.645h-3.103v4.035h29.263v-4.035h-3.105c-2.192,0-3.976-1.692-3.976-3.768V109.44h17.178v26.867
			c0,2.076-1.785,3.768-3.975,3.768h-3.107v4.035h29.263v-4.035h-3.104C778.475,140.076,776.733,138.466,776.671,136.422z
			 M750.826,67.462h4.287c1.946,0,3.604,0.344,4.931,1.02c1.02,0.538,1.518,1.111,1.518,1.757v35.222h-17.178V70.238
			c0-0.646,0.494-1.219,1.51-1.753C747.219,67.802,748.878,67.462,750.826,67.462z"/>
		<path fill="#690000" d="M310.271,136.308l-0.004-18.967c0-2.819-1.482-5.298-4.402-7.364c-1.463-1.025-3.155-1.887-5.036-2.553
			c1.907-0.711,3.597-1.584,5.041-2.598c2.916-2.064,4.397-4.543,4.397-7.371V75.349c0-1.8-0.657-3.483-1.947-5
			c-1.191-1.395-2.783-2.621-4.732-3.644c-1.909-0.993-4.158-1.79-6.684-2.369c-2.516-0.576-5.271-0.866-8.199-0.866h-31.712v4.035
			h3.104c2.19,0,3.977,1.688,3.977,3.769v65.035c0,2.076-1.786,3.768-3.977,3.768h-3.104v4.035h29.234v-4.035h-3.104
			c-2.18,0-3.962-1.679-3.974-3.743l-0.004-26.882h9.559c1.953,0,3.616,0.347,4.935,1.026c1.037,0.552,1.543,1.126,1.543,1.75
			v25.675c0,1.796,0.889,3.326,2.64,4.543c1.621,1.107,3.592,1.67,5.867,1.67l13.663-0.003v-4.035h-3.104
			C312.054,140.076,310.271,138.383,310.271,136.308z M288.704,67.462c1.951,0,3.608,0.34,4.937,1.02
			c1.035,0.546,1.541,1.122,1.541,1.757v32.443c0,0.632-0.506,1.2-1.541,1.738c-1.301,0.689-2.962,1.035-4.937,1.035h-9.54
			l-0.019-37.993H288.704z"/>
		<path fill="#690000" d="M655.789,136.308l-0.002-18.967c0-2.819-1.481-5.298-4.402-7.364c-1.467-1.03-3.161-1.887-5.036-2.553
			c1.902-0.711,3.592-1.584,5.039-2.598c2.918-2.064,4.399-4.543,4.399-7.371V75.349c0-1.8-0.655-3.483-1.949-5
			c-1.188-1.395-2.779-2.621-4.732-3.644c-1.907-0.993-4.156-1.79-6.681-2.369c-2.515-0.576-5.275-0.866-8.199-0.866h-31.714v4.035
			h3.101c2.192,0,3.98,1.688,3.98,3.769v65.035c0,2.076-1.788,3.768-3.98,3.768h-3.101v4.035h29.237v-4.035h-3.104
			c-2.182,0-3.966-1.679-3.976-3.743l-0.004-26.882h9.561c1.952,0,3.615,0.347,4.933,1.026c1.036,0.556,1.54,1.126,1.54,1.75v25.675
			c0,1.8,0.89,3.326,2.643,4.543c1.62,1.107,3.594,1.67,5.866,1.67l13.661-0.003v-4.035h-3.104
			C657.576,140.076,655.789,138.383,655.789,136.308z M634.226,67.462c1.947,0,3.607,0.34,4.933,1.02
			c1.036,0.546,1.54,1.122,1.54,1.757v32.443c0,0.632-0.504,1.2-1.54,1.738c-1.299,0.689-2.962,1.035-4.933,1.035h-9.541
			l-0.02-37.993H634.226z"/>
		<path fill="#690000" d="M1031.504,124.898v3.39c0,6.498-5.573,11.79-12.419,11.79l-14.807-0.008c-0.298,0-0.525-0.065-0.742-0.215
			c-0.092-0.058-0.092-0.07-0.092-0.116l0.007-68.465c0-2.081,1.784-3.769,3.977-3.769h3.104V63.47h-29.262v4.035h3.104
			c2.192,0,3.976,1.688,3.976,3.769v65.035c0,2.076-1.783,3.768-3.976,3.768h-3.104v4.035l55.531,0.003v-19.216H1031.504z"/>
		<path fill="#690000" d="M540.408,67.504h3.105c2.196,0,3.977,1.688,3.977,3.769v65.035c0,2.076-1.78,3.768-3.977,3.768h-3.105
			v4.035l55.526,0.003v-19.216h-5.297v3.39c0,6.498-5.572,11.79-12.419,11.79l-15.064,0.004c-0.202-0.034-0.354-0.089-0.483-0.181
			c-0.086-0.058-0.086-0.071-0.086-0.116v-33.651c0.015-0.016,0.047-0.043,0.091-0.075c0.224-0.15,0.45-0.218,0.741-0.218h10.887
			c2.088,0,3.786,1.61,3.786,3.588v3.576h5.585v-18.32h-5.585v3.574c0,1.977-1.698,3.584-3.786,3.584h-10.922
			c-0.289-0.006-0.506-0.07-0.7-0.209c-0.085-0.056-0.096-0.08-0.097-0.117V67.744c0.025-0.024,0.067-0.062,0.091-0.08
			c0.118-0.076,0.261-0.13,0.401-0.16h15.142c6.847,0,12.419,5.292,12.419,11.79v3.389h5.297V63.47h-55.526V67.504z"/>
		<path fill="#690000" d="M838.494,67.504h3.104c2.192,0,3.977,1.693,3.977,3.769v43.447l-27.573-51.137l-0.064-0.113h-27.619v4.035
			h3.104c2.164,0,3.905,1.61,3.967,3.658v65.246c-0.062,2.058-1.803,3.667-3.967,3.667h-3.104v4.035h23.921v-4.035h-3.103
			c-2.189,0-3.977-1.692-3.977-3.768V72.889l38.997,71.113l0.062,0.113h9.107l0.013-72.841c0-2.076,1.783-3.769,3.973-3.769h3.106
			V63.47h-23.923V67.504z"/>
		<path fill="#690000" d="M711.658,64.696c-0.532,0.969-1.572,1.571-2.711,1.571c-0.216,0-0.444-0.025-0.708-0.083
			c-0.193-0.031-0.406-0.083-0.63-0.154c-0.974-0.42-2.005-0.795-3.06-1.111c-3.152-0.964-6.68-1.449-10.478-1.449h-3.066
			c-2.925,0-5.688,0.29-8.201,0.866c-2.521,0.577-4.789,1.371-6.742,2.361c-2.023,1.025-3.623,2.263-4.773,3.679
			c-1.223,1.512-1.844,3.185-1.844,4.973v56.886c0,1.788,0.621,3.461,1.844,4.974c1.15,1.418,2.758,2.655,4.773,3.676
			c1.946,0.992,4.219,1.787,6.742,2.365c2.525,0.573,5.283,0.866,8.201,0.866h3.066c3.795,0,7.319-0.485,10.478-1.446
			c1.062-0.322,2.091-0.697,3.04-1.105c0.217-0.075,0.436-0.13,0.663-0.167c0.247-0.053,0.474-0.08,0.694-0.08
			c1.141,0,2.179,0.602,2.711,1.569l0.064,0.114h3.905v-18.108h-5.395l0.005,1.116l-0.021,0.239
			c-0.201,2.598-0.891,4.932-2.057,6.937c-1.065,1.742-2.707,3.367-4.878,4.832c-2.073,1.393-5.231,2.1-9.377,2.1h-3.059
			c-1.866,0-3.473-0.344-4.776-1.02c-1.043-0.546-1.545-1.118-1.545-1.75V70.238c0-0.633,0.502-1.208,1.544-1.748
			c1.313-0.683,2.919-1.025,4.777-1.025h3.059c4.146,0,7.299,0.709,9.377,2.103c2.171,1.467,3.813,3.093,4.873,4.822
			c1.171,2.011,1.86,4.348,2.062,6.943l0.016,1.357h5.172l0.223-0.008v-18.1h-3.905L711.658,64.696z"/>
		<path fill="#690000" d="M487.955,118.664l-18.833-55.041l-0.05-0.151h-26.995v4.036h3.114c2.197,0,3.981,1.691,3.981,3.774v65.046
			c0,2.076-1.784,3.768-3.981,3.768h-2.895l-0.22,0.034v3.987h27.832v-4.021h-3.105c-2.171,0-3.956-1.677-3.978-3.734V78.548
			l22.415,65.415l0.051,0.151h5.329l22.476-65.566v57.812c-0.032,2.095-1.783,3.737-3.979,3.737h-3.1v3.796l0.022,0.225h27.795
			v-4.021h-3.105c-2.19,0-3.975-1.692-3.975-3.768V71.283c0-2.083,1.784-3.774,3.975-3.774h2.882l0.224-0.043v-3.993h-26.981
			L487.955,118.664z"/>
	</g>
</g>
</svg>
